<svg id="Слой_1" data-name="Слой 1" xmlns="http://www.w3.org/2000/svg" viewBox="0 0 20 20"><defs><style>.cls-1{fill:#fff;}</style></defs><title>phone-w</title><path class="cls-1" d="M6.76.15a1.47,1.47,0,0,1,.89,1.19c.24,1,.46,2.08.69,3.12a2.52,2.52,0,0,1,0,.48,1,1,0,0,1-.7,1c-.32.11-.65.23-1,.33a.83.83,0,0,0-.58.63,2.18,2.18,0,0,0,0,1.24,13.33,13.33,0,0,0,4.06,5.9,8.84,8.84,0,0,0,1.24.86,1.49,1.49,0,0,0,.93.16.7.7,0,0,0,.56-.32c.19-.27.38-.53.56-.8a1,1,0,0,1,1.42-.42,8.74,8.74,0,0,1,1,.5l1.79,1,.45.27a1.46,1.46,0,0,1,.76,1.1l-.06.4a8.93,8.93,0,0,1-.4.89,4.19,4.19,0,0,1-3.21,2.25,8.31,8.31,0,0,1-.87,0l-.68-.09c-.27-.09-.55-.16-.81-.26a10.8,10.8,0,0,1-3.5-2.22A24.58,24.58,0,0,1,6,13.68,24.91,24.91,0,0,1,2.84,8.45,10.09,10.09,0,0,1,2,5.17c0-.33,0-.67,0-1L2,3.48l.06-.15A4.12,4.12,0,0,1,5.27.24,8.08,8.08,0,0,1,6.37.09Z"/></svg>