<?xml version="1.0" encoding="utf-8"?>
<!-- Generator: Adobe Illustrator 16.0.2, SVG Export Plug-In . SVG Version: 6.00 Build 0)  -->
<!DOCTYPE svg PUBLIC "-//W3C//DTD SVG 1.0//EN" "http://www.w3.org/TR/2001/REC-SVG-20010904/DTD/svg10.dtd">
<svg version="1.0" id="Слой_1" xmlns="http://www.w3.org/2000/svg" xmlns:xlink="http://www.w3.org/1999/xlink" x="0px" y="0px"
	 width="340px" height="218.856px" viewBox="0 0 340 218.856" enable-background="new 0 0 340 218.856" xml:space="preserve">
<g>
	<g>
		<g>
			<polygon fill="#00509E" points="65.939,190.956 53.734,190.956 53.734,161.115 40.353,161.115 40.353,190.956 28.15,190.956 
				28.15,151.424 65.939,151.424 			"/>
			<path fill="#00509E" d="M98.394,184.444H84.5l-1.935,6.512H70.091l14.899-39.532h13.354l14.817,39.532h-12.791L98.394,184.444z
				 M95.856,175.881l-4.359-14.211l-4.333,14.211H95.856z"/>
			<polygon fill="#00509E" points="114.268,151.424 151.389,151.424 151.389,161.165 138.93,161.165 138.93,190.956 
				126.728,190.956 126.728,161.165 114.268,161.165 			"/>
			<path fill="#00509E" d="M156.859,151.424h20.295c4.425,0,7.734,1.05,9.936,3.154c2.201,2.105,3.301,5.1,3.301,8.982
				c0,3.992-1.197,7.112-3.6,9.358c-2.399,2.249-6.063,3.372-10.99,3.372h-6.687v14.665h-12.255V151.424z M169.114,168.294h2.992
				c2.355,0,4.009-0.41,4.961-1.227c0.951-0.82,1.431-1.865,1.431-3.144c0-1.241-0.418-2.292-1.242-3.155
				c-0.827-0.864-2.381-1.294-4.663-1.294h-3.479V168.294z"/>
			<polygon fill="#00509E" points="234.622,151.424 234.622,190.956 223.138,190.956 223.138,169.248 208.324,190.956 
				196.782,190.956 196.782,151.424 208.32,151.424 208.32,173.293 223.244,151.424 			"/>
			<path fill="#00509E" d="M241.234,171.218c0-6.452,1.801-11.475,5.397-15.068c3.597-3.597,8.602-5.393,15.021-5.393
				c6.58,0,11.65,1.766,15.211,5.299c3.561,3.531,5.341,8.477,5.341,14.839c0,4.618-0.778,8.403-2.332,11.361
				c-1.557,2.955-3.804,5.257-6.743,6.899c-2.94,1.644-6.604,2.468-10.99,2.468c-4.46,0-8.151-0.711-11.073-2.13
				c-2.923-1.42-5.291-3.666-7.105-6.738C242.145,179.681,241.234,175.836,241.234,171.218 M253.44,171.27
				c0,3.992,0.74,6.863,2.229,8.609c1.484,1.745,3.508,2.616,6.068,2.616c2.626,0,4.66-0.853,6.103-2.563
				c1.439-1.711,2.161-4.779,2.161-9.205c0-3.725-0.751-6.444-2.257-8.164c-1.503-1.718-3.543-2.577-6.119-2.577
				c-2.467,0-4.446,0.872-5.943,2.618C254.187,164.349,253.44,167.237,253.44,171.27"/>
			<polygon fill="#00509E" points="285.998,151.424 323.121,151.424 323.121,161.165 310.661,161.165 310.661,190.956 
				298.457,190.956 298.457,161.165 285.998,161.165 			"/>
			<polygon fill="#00509E" points="28.681,218.856 28.681,204.346 31.615,204.346 31.615,210.061 37.344,210.061 37.344,204.346 
				40.28,204.346 40.28,218.856 37.344,218.856 37.344,212.512 31.615,212.512 31.615,218.856 			"/>
			<polygon fill="#00509E" points="54.063,218.856 54.063,204.346 64.805,204.346 64.805,206.794 56.999,206.794 56.999,210.012 
				64.267,210.012 64.267,212.46 56.999,212.46 56.999,216.408 65.086,216.408 65.086,218.856 			"/>
			<path fill="#00509E" d="M79.482,204.346h10.012v12.075h1.281v5.603H88.34v-3.167h-9.128v3.167h-2.435v-5.603h1.23
				c0.599-1.239,0.996-2.681,1.187-4.321c0.192-1.639,0.289-3.713,0.289-6.22V204.346z M82.275,206.78
				c0,4.409-0.399,7.621-1.203,9.641h5.486v-9.641H82.275z"/>
			<path fill="#00509E" d="M103.514,204.346h5.796c1.149,0,2.004,0.048,2.568,0.144c0.564,0.097,1.068,0.294,1.512,0.6
				c0.446,0.301,0.816,0.707,1.114,1.211c0.297,0.506,0.444,1.069,0.444,1.695c0,0.679-0.18,1.304-0.543,1.87
				c-0.362,0.567-0.856,0.991-1.477,1.274c0.882,0.26,1.557,0.697,2.028,1.316c0.472,0.624,0.71,1.354,0.71,2.189
				c0,0.661-0.152,1.306-0.459,1.928c-0.309,0.625-0.727,1.124-1.258,1.497c-0.532,0.37-1.186,0.601-1.966,0.687
				c-0.486,0.054-1.665,0.087-3.533,0.1h-4.938V204.346z M106.451,206.756v3.359h1.916c1.14,0,1.848-0.019,2.127-0.051
				c0.499-0.061,0.893-0.232,1.18-0.52c0.286-0.287,0.43-0.666,0.43-1.136c0-0.448-0.123-0.813-0.37-1.094
				c-0.248-0.281-0.615-0.453-1.102-0.51c-0.29-0.033-1.125-0.05-2.5-0.05H106.451z M106.451,212.524v3.884h2.715
				c1.056,0,1.728-0.029,2.014-0.087c0.436-0.08,0.79-0.276,1.063-0.581c0.276-0.309,0.41-0.718,0.41-1.235
				c0-0.436-0.104-0.804-0.315-1.109c-0.211-0.305-0.516-0.526-0.916-0.664c-0.401-0.138-1.266-0.207-2.603-0.207H106.451z"/>
			<polygon fill="#00509E" points="128.923,204.346 131.667,204.346 131.667,214.004 137.538,204.346 140.461,204.346 
				140.461,218.856 137.717,218.856 137.717,209.367 131.86,218.856 128.923,218.856 			"/>
			<path fill="#00509E" d="M163.316,204.346v6.179c0.486-0.039,0.856-0.221,1.106-0.544s0.596-1.06,1.036-2.214
				c0.581-1.51,1.174-2.472,1.78-2.889c0.601-0.407,1.597-0.612,2.996-0.612c0.063,0,0.209-0.005,0.427-0.009v2.165l-0.427-0.009
				c-0.594,0-1.029,0.072-1.305,0.222c-0.276,0.148-0.501,0.373-0.672,0.679c-0.17,0.303-0.424,0.923-0.762,1.865
				c-0.178,0.5-0.37,0.92-0.577,1.256c-0.211,0.338-0.575,0.651-1.104,0.947c0.653,0.191,1.194,0.567,1.619,1.123
				c0.425,0.56,0.893,1.348,1.4,2.372l1.979,3.979h-3.442l-1.755-3.748c-0.021-0.052-0.076-0.151-0.167-0.305
				c-0.055-0.102-0.173-0.326-0.355-0.686c-0.369-0.696-0.668-1.14-0.906-1.332c-0.233-0.192-0.527-0.287-0.872-0.287v6.357h-2.86
				v-6.357c-0.334,0-0.624,0.091-0.867,0.276s-0.547,0.634-0.907,1.339c-0.205,0.397-0.327,0.626-0.367,0.686
				c-0.058,0.099-0.116,0.2-0.167,0.306l-1.749,3.751h-3.44l1.978-3.979c0.49-0.983,0.949-1.765,1.379-2.341
				c0.433-0.578,0.984-0.963,1.648-1.154c-0.526-0.296-0.894-0.609-1.1-0.943c-0.211-0.331-0.407-0.752-0.588-1.26
				c-0.331-0.922-0.581-1.539-0.748-1.848c-0.167-0.308-0.392-0.541-0.672-0.691c-0.281-0.15-0.736-0.227-1.368-0.227
				c-0.079,0-0.205,0.003-0.377,0.009v-2.165c0.218,0.004,0.359,0.009,0.426,0.009c1.416,0,2.427,0.208,3.025,0.623
				c0.594,0.421,1.176,1.379,1.749,2.878c0.447,1.157,0.797,1.898,1.042,2.218c0.249,0.321,0.617,0.501,1.104,0.54v-6.179H163.316z"
				/>
			<polygon fill="#00509E" points="183.306,204.346 186.048,204.346 186.048,214.004 191.918,204.346 194.84,204.346 
				194.84,218.856 192.098,218.856 192.098,209.367 186.239,218.856 183.306,218.856 			"/>
			<polygon fill="#00509E" points="208.542,218.856 208.542,204.346 212.936,204.346 215.56,214.245 218.152,204.346 
				222.554,204.346 222.554,218.856 219.835,218.856 219.83,207.433 216.954,218.856 214.137,218.856 211.267,207.433 
				211.259,218.856 			"/>
			<path fill="#00509E" d="M235.624,211.69c0-1.478,0.222-2.719,0.662-3.721c0.328-0.738,0.78-1.4,1.352-1.988
				c0.57-0.584,1.194-1.024,1.877-1.308c0.903-0.38,1.945-0.572,3.127-0.572c2.138,0,3.849,0.663,5.13,1.988
				c1.286,1.329,1.927,3.168,1.927,5.531c0,2.341-0.639,4.174-1.911,5.495c-1.273,1.323-2.978,1.985-5.107,1.985
				c-2.156,0-3.873-0.661-5.146-1.975C236.258,215.81,235.624,213.998,235.624,211.69 M238.636,211.593
				c0,1.642,0.379,2.889,1.139,3.734c0.763,0.849,1.729,1.271,2.9,1.271c1.17,0,2.132-0.419,2.884-1.262
				c0.749-0.842,1.127-2.103,1.127-3.784c0-1.665-0.367-2.904-1.097-3.725c-0.732-0.816-1.702-1.227-2.914-1.227
				c-1.211,0-2.188,0.414-2.929,1.241C239.005,208.673,238.636,209.923,238.636,211.593"/>
			<path fill="#00509E" d="M272.005,213.512l2.844,0.897c-0.434,1.585-1.157,2.765-2.17,3.534c-1.013,0.772-2.298,1.158-3.858,1.158
				c-1.923,0-3.509-0.661-4.749-1.975c-1.239-1.317-1.859-3.114-1.859-5.396c0-2.414,0.624-4.29,1.872-5.624
				c1.245-1.337,2.886-2.005,4.918-2.005c1.774,0,3.216,0.526,4.324,1.572c0.661,0.621,1.156,1.511,1.486,2.672l-2.896,0.691
				c-0.173-0.751-0.532-1.347-1.076-1.782c-0.547-0.436-1.207-0.653-1.989-0.653c-1.076,0-1.951,0.385-2.622,1.158
				c-0.672,0.772-1.006,2.025-1.006,3.752c0,1.835,0.33,3.144,0.991,3.92c0.66,0.779,1.517,1.167,2.573,1.167
				c0.778,0,1.448-0.245,2.009-0.742S271.761,214.577,272.005,213.512"/>
			<polygon fill="#00509E" points="290.886,218.856 290.886,206.794 286.58,206.794 286.58,204.346 298.116,204.346 
				298.116,206.794 293.82,206.794 293.82,218.856 			"/>
			<path fill="#00509E" d="M310.794,204.346h2.937v5.794h3.909c1.844,0,3.179,0.433,4.005,1.296c0.825,0.867,1.239,1.902,1.239,3.11
				c0,0.991-0.25,1.833-0.751,2.526s-1.075,1.165-1.717,1.412c-0.643,0.247-1.571,0.372-2.782,0.372h-6.84V204.346z
				 M313.731,216.421h2.846c0.925,0,1.563-0.043,1.92-0.135c0.355-0.088,0.675-0.292,0.954-0.607
				c0.279-0.319,0.421-0.708,0.421-1.172c0-0.664-0.239-1.154-0.717-1.467c-0.479-0.309-1.294-0.464-2.448-0.464h-2.976V216.421z"/>
		</g>
		<g>
			<polygon fill="#00509E" points="203.656,27.752 208.595,27.752 208.595,33.341 213.978,33.341 213.978,27.752 218.947,27.752 
				218.947,43.729 213.978,43.729 213.978,37.273 208.595,37.273 208.595,43.729 203.656,43.729 			"/>
			<polygon fill="#00509E" points="222.231,27.752 235.435,27.752 235.435,31.166 227.174,31.166 227.174,33.693 234.833,33.693 
				234.833,36.963 227.174,36.963 227.174,40.108 235.681,40.108 235.681,43.729 222.231,43.729 			"/>
			<path fill="#00509E" d="M238.371,27.752h9.235c1.537,0,2.72,0.381,3.54,1.145c0.828,0.759,1.238,1.7,1.238,2.826
				c0,0.94-0.297,1.749-0.885,2.424c-0.396,0.448-0.967,0.802-1.722,1.065c1.15,0.278,1.998,0.753,2.533,1.425
				c0.545,0.673,0.816,1.519,0.816,2.539c0,0.83-0.194,1.577-0.575,2.239c-0.387,0.663-0.912,1.187-1.582,1.568
				c-0.412,0.242-1.038,0.419-1.871,0.526c-1.114,0.145-1.851,0.22-2.214,0.22h-8.515V27.752z M243.358,34h2.138
				c0.762,0,1.295-0.131,1.593-0.392c0.302-0.267,0.452-0.649,0.452-1.147c0-0.464-0.15-0.827-0.452-1.089
				c-0.298-0.259-0.82-0.39-1.564-0.39h-2.166V34z M243.358,40.293h2.509c0.845,0,1.443-0.153,1.792-0.45
				c0.352-0.309,0.524-0.713,0.524-1.223c0-0.472-0.173-0.856-0.518-1.145c-0.345-0.285-0.951-0.43-1.808-0.43h-2.5V40.293z"/>
			<path fill="#00509E" d="M265.531,41.101h-5.61l-0.775,2.628h-5.041l6.003-15.977h5.404l5.996,15.977h-5.176L265.531,41.101z
				 M264.505,37.644l-1.764-5.746l-1.749,5.746H264.505z"/>
			<path fill="#939598" d="M334.522,51.392c-7.145-23.279-46.857-38.325-94.185-43.101c-15.916-1.606-27.797-2.39-36.572-2.737
				v2.557c11.822,1.277,25.998,3.04,36.572,5.077c21.835,4.225,39.44,13.215,42.275,24.952
				c3.434,14.216-14.236,30.766-42.275,38.007c-28.046,7.248-37.012,6.315-37.012,6.315l0.977,37.644c0,0,16.774,1.104,36.035-1.629
				C289.614,111.491,343.267,79.886,334.522,51.392"/>
			<path fill-rule="evenodd" clip-rule="evenodd" fill="#939598" d="M66.872,86.274c-21.747-5.76-34.62-15.385-34.05-26.56
				c0.544-10.658,13.432-21.504,34.05-30.006v-3.286C30.659,38.613,7.093,56.545,5.529,74.576
				c-1.675,19.327,21.722,36.786,61.343,45.895V86.274z"/>
			<path fill="#00509E" d="M114.642,126.6V29.912h40.071V126.6c12.104-0.581,23.795-1.673,34.937-3.23V0H79.68v123.37
				C90.824,124.926,102.527,126.019,114.642,126.6"/>
		</g>
	</g>
</g>
</svg>
